<svg t="1714644091734" class="icon" viewBox="0 0 1091 1024" version="1.1" xmlns="http://www.w3.org/2000/svg" p-id="2707" width="200" height="200"><path d="M252.839506 107.45679l6.320988 31.604938 4.213992-33.711934s4.213992-31.604938 27.390946-31.604938h4.213992v-8.427984h-4.213992c-6.320988-2.106996-27.390947-16.855967-27.390946-31.604938L261.26749 0 252.839506 31.604938c-2.106996 8.427984-12.641975 31.604938-25.28395 35.81893l-16.855968 4.213992 16.855968 6.320988c-2.106996 0 21.069959 8.427984 25.28395 29.497942M101.135802 349.761317l-18.962962-8.427984c-8.427984-4.213992-29.497942-18.962963-29.497943-31.604938l-2.106996-33.711934-8.427983 31.604938c-2.106996 8.427984-12.641975 31.604938-25.283951 35.81893l-16.855967 2.106996 16.855967 6.320988s23.176955 8.427984 27.390947 31.604938l6.320987 31.604938 4.213992-33.711934s4.213992-31.604938 27.390947-31.604938h18.962962zM349.761317 434.041152h8.427983c4.213992-2.106996 8.427984-6.320988 8.427984-10.534979V421.399177v-8.427984l4.213992-14.748971c2.106996-2.106996 4.213992-6.320988 6.320987-8.427983 4.213992-4.213992 4.213992-8.427984 0-14.748972-4.213992-4.213992-8.427984-4.213992-14.748971 0-12.641975 14.748971-18.962963 33.711934-14.748971 52.674898-4.213992 2.106996-2.106996 4.213992 2.106996 6.320987M246.518519 208.592593c-12.641975 0-23.176955 10.534979-23.176955 23.176954 0 8.427984 4.213992 16.855967 12.641975 21.069959 4.213992 2.106996 8.427984 4.213992 10.53498 4.213992 4.213992 0 8.427984 0 12.641975-4.213992 6.320988-4.213992 12.641975-12.641975 12.641975-21.069959-2.106996-10.534979-12.641975-23.176955-25.28395-23.176954" fill="#999999" p-id="2708"></path><path d="M385.580247 379.259259s2.106996 0 4.213992-2.106996c10.534979-4.213992 25.283951-6.320988 35.81893-4.213991h8.427983c2.106996-2.106996 4.213992-4.213992 4.213992-6.320988V358.1893c-2.106996-2.106996-4.213992-4.213992-6.320988-4.213991-14.748971-4.213992-33.711934-2.106996-50.567901 4.213991-4.213992 2.106996-6.320988 6.320988-4.213992 10.53498-2.106996 6.320988 2.106996 10.534979 8.427984 10.534979M552.032922 446.683128c2.106996 0 6.320988-2.106996 6.320987-2.106996 8.427984-8.427984 16.855967-18.962963 27.390947-31.604939 0-2.106996 2.106996-4.213992 2.106996-6.320987v-2.106996c-2.106996-2.106996-2.106996-4.213992-4.213992-6.320988-2.106996-2.106996-4.213992-2.106996-6.320988-2.106996h-2.106995c-2.106996 0-4.213992 2.106996-4.213992 4.213992-8.427984 10.534979-14.748971 18.962963-25.283951 29.497942-2.106996 2.106996-2.106996 4.213992-2.106996 6.320988 0 2.106996 0 4.213992 4.213992 8.427984 0 2.106996 2.106996 2.106996 4.213992 2.106996M478.288066 444.576132c-2.106996-2.106996-4.213992-4.213992-6.320988-4.213992-2.106996 0-6.320988 0-8.427983 2.106996-2.106996 2.106996-4.213992 4.213992-4.213992 8.427983-2.106996 10.534979-4.213992 23.176955-6.320988 33.711934h-2.106996c-2.106996 0-6.320988 2.106996-8.427983 4.213992-2.106996-2.106996-4.213992-4.213992-6.320988-4.213992-8.427984-2.106996-16.855967-4.213992-27.390946-8.427983-2.106996-2.106996-6.320988-2.106996-10.53498 0v-2.106996c0-2.106996-2.106996-6.320988-4.213992-8.427983-2.106996-2.106996-4.213992-4.213992-8.427983-6.320988-8.427984-6.320988-12.641975-12.641975-16.855967-18.962963l-2.106996-2.106996c-4.213992-2.106996-10.534979-2.106996-12.641975 0-4.213992 2.106996-4.213992 8.427984-2.106996 14.748971 6.320988 8.427984 12.641975 16.855967 21.069959 23.176955l8.427983 6.320988c2.106996 2.106996 4.213992 2.106996 6.320988 2.106995 2.106996 0 4.213992 0 4.213992-2.106995 0 4.213992 2.106996 6.320988 6.320987 8.427983 10.534979 4.213992 21.069959 8.427984 33.711934 10.53498h2.106996c4.213992 0 6.320988-2.106996 8.427984-4.213992l2.106996 2.106996c-2.106996 2.106996-2.106996 4.213992-4.213992 8.427983-2.106996 2.106996-2.106996 6.320988 0 8.427984 0 2.106996 2.106996 4.213992 4.213992 6.320987 2.106996 0 4.213992 2.106996 4.213991 2.106996 4.213992 0 6.320988-2.106996 8.427984-6.320987 2.106996-6.320988 6.320988-10.534979 8.427984-16.855967 4.213992 0 6.320988-2.106996 8.427983-2.106996 2.106996 0 4.213992-2.106996 6.320988-4.213992 2.106996-2.106996 2.106996-4.213992 2.106996-8.427984 0-2.106996-2.106996-4.213992-4.213992-6.320987-2.106996 0-4.213992-2.106996-4.213992-2.106996 2.106996-10.534979 4.213992-18.962963 4.213992-29.497943 2.106996 0 0-2.106996 0-4.213991M490.930041 484.609053c2.106996 2.106996 6.320988 4.213992 8.427984 4.213992h4.213991c10.534979-6.320988 23.176955-14.748971 35.818931-27.390946 2.106996-2.106996 4.213992-6.320988 4.213991-8.427984v-2.106996c0-2.106996-4.213992-6.320988-6.320987-6.320987h-2.106996c-2.106996 0-6.320988 2.106996-6.320988 2.106996H526.748971c-10.534979 8.427984-21.069959 16.855967-33.711934 23.176954-4.213992 2.106996-6.320988 8.427984-2.106996 14.748971zM440.36214 383.473251c10.534979 8.427984 16.855967 21.069959 18.962963 40.032922 0 4.213992 2.106996 6.320988 6.320988 8.427983h4.213991c2.106996 0 4.213992 0 6.320988-2.106996 2.106996-2.106996 4.213992-4.213992 4.213992-8.427983-2.106996-23.176955-10.534979-42.139918-25.283951-52.674897-2.106996-2.106996-4.213992-2.106996-8.427983-2.106996-2.106996 0-4.213992 2.106996-6.320988 4.213992-2.106996 2.106996-2.106996 4.213992-2.106996 6.320987-2.106996 0-2.106996 2.106996 2.106996 6.320988M307.621399 642.633745l6.320988-2.106996c4.213992-2.106996 18.962963-8.427984 35.81893-18.962963l4.213992-2.106996-10.53498-16.855967-4.213992 2.106996c-21.069959 10.534979-35.81893 16.855967-35.81893 16.855967l-4.213991 2.106996 4.213991 14.748971 4.213992 4.213992zM973.432099 231.769547c0-8.427984-2.106996-16.855967-8.427984-21.069959-6.320988-6.320988-14.748971-10.534979-23.176955-10.534979-16.855967 0-31.604938 14.748971-31.604938 31.604938s12.641975 31.604938 31.604938 31.604939c16.855967 0 31.604938-12.641975 31.604939-31.604939m-31.604939 14.748972c-8.427984 0-14.748971-6.320988-14.748971-14.748972 0-8.427984 6.320988-14.748971 14.748971-14.748971 8.427984 0 14.748971 6.320988 14.748972 14.748971 0 8.427984-6.320988 14.748971-14.748972 14.748972M552.032922 219.127572l94.814815 42.139918 82.172839-65.316873-61.102881 67.423869 113.777778 37.925926L842.798354 77.958848zM847.012346 648.954733l-2.106996-29.497943-8.427984 29.497943c-2.106996 4.213992-6.320988 14.748971-10.534979 14.748971l-14.748971 4.213991 14.748971 6.320988s8.427984 4.213992 10.534979 12.641975l6.320988 31.604939 4.213992-31.604939s2.106996-12.641975 10.534979-12.641975h21.069959l-16.855967-10.534979c-6.320988-4.213992-14.748971-10.534979-14.748971-14.748971M1053.497942 488.823045c-29.497942-18.962963-37.925926-33.711934-37.925926-42.139917l-2.106995-27.390947-8.427984 27.390947c-4.213992 10.534979-16.855967 42.139918-35.81893 46.353909l-14.748971 4.213992 14.748971 6.320987s29.497942 12.641975 35.81893 42.139918l6.320988 33.711934 4.213991-35.81893c0-2.106996 4.213992-42.139918 37.925926-42.139917h4.213992v-4.213992c0-6.320988-2.106996-8.427984-4.213992-8.427984M1070.353909 387.687243c-4.213992-2.106996-12.641975-8.427984-12.641975-14.748971l-4.213992-29.497943-8.427983 29.497943c-2.106996 4.213992-6.320988 14.748971-10.53498 14.748971l-14.748971 4.213992 14.748971 6.320987s8.427984 4.213992 10.53498 12.641976L1053.497942 442.469136l4.213992-31.604938s2.106996-12.641975 10.53498-12.641976h18.962963l-16.855968-10.534979z" fill="#999999" p-id="2709"></path><path d="M712.164609 792.230453c0-2.106996 0-4.213992-2.106996-6.320988-4.213992-16.855967-10.534979-31.604938-14.748971-48.460905-4.213992-14.748971-10.534979-31.604938-14.748971-48.460906-16.855967-50.567901-33.711934-99.028807-48.460906-141.168724-4.213992-12.641975-14.748971-18.962963-27.390946-18.962963h-158.024691c0-2.106996-2.106996-2.106996-4.213992-4.213992-4.213992-2.106996-10.534979-2.106996-14.748971 2.106996H187.522634c-4.213992 0-8.427984 0-12.641976 2.106996-8.427984 2.106996-14.748971 8.427984-18.962963 18.962963l-44.246913 132.740741L77.958848 779.588477c-2.106996 6.320988-4.213992 12.641975-4.213992 21.069959v189.62963c0 6.320988 0 16.855967 8.427984 25.28395 6.320988 6.320988 16.855967 8.427984 23.176954 8.427984h577.316873c4.213992 0 14.748971 0 21.069959-8.427984 4.213992-4.213992 8.427984-10.534979 8.427983-21.069958v-191.736626c2.106996-6.320988 2.106996-8.427984 0-10.534979M103.242798 994.502058V811.193416h200.164609v4.213991c2.106996 27.390947 14.748971 54.781893 37.925926 69.530865 16.855967 12.641975 33.711934 18.962963 54.781893 18.962963H402.436214c25.283951-2.106996 48.460905-12.641975 65.316872-31.604939 14.748971-14.748971 21.069959-35.81893 23.176955-56.888889v-2.106995-2.106996h198.057613v181.201646H107.45679c-2.106996 2.106996-4.213992 2.106996-4.213992 2.106996m299.193416-436.148149c-4.213992 4.213992-4.213992 8.427984 0 14.748972 4.213992 4.213992 8.427984 4.213992 14.748971 0l18.962963-18.962963h172.773663l48.460905 143.27572c4.213992 16.855967 10.534979 31.604938 14.748971 46.353909l12.641976 37.925926h-191.736626c-4.213992 0-14.748971 0-21.069959 8.427984-6.320988 6.320988-8.427984 14.748971-8.427983 18.962963v2.106996c0 14.748971-6.320988 29.497942-16.855967 42.139917-12.641975 12.641975-29.497942 21.069959-46.35391 23.176955-14.748971 0-29.497942-4.213992-42.139918-12.641975-14.748971-10.534979-25.283951-29.497942-27.390946-50.567901v-2.106996c0-6.320988-2.106996-14.748971-8.427984-21.069959-6.320988-6.320988-14.748971-6.320988-21.069958-6.320988H105.349794l31.604939-96.921811c14.748971-42.139918 42.139918-128.526749 44.246913-132.74074H406.650206c-2.106996 0-2.106996 2.106996-4.213992 4.213991" fill="#999999" p-id="2710"></path><path d="M358.1893 613.135802h4.213992c2.106996 0 4.213992 0 4.213992-2.106995 10.534979-6.320988 21.069959-14.748971 31.604938-23.176955 2.106996-2.106996 4.213992-4.213992 4.213992-8.427984v-2.106996c0-2.106996-2.106996-6.320988-6.320988-6.320987-2.106996 0-6.320988-2.106996-10.534979 2.106996-10.534979 8.427984-21.069959 14.748971-29.497942 21.069959-2.106996 2.106996-4.213992 4.213992-4.213992 6.320987 0 2.106996 0 6.320988 2.106996 8.427984 0 2.106996 2.106996 4.213992 4.213991 4.213991M672.131687 276.016461l-8.427983 88.493827 50.567901-63.209876zM615.242798 332.90535c-2.106996 0-4.213992 2.106996-6.320987 4.213992-8.427984 14.748971-16.855967 27.390947-23.176955 37.925925-2.106996 2.106996-4.213992 6.320988-2.106996 10.53498 2.106996 6.320988 6.320988 8.427984 8.427984 8.427983 4.213992 0 6.320988-2.106996 8.427983-4.213991 8.427984-12.641975 16.855967-27.390947 25.283951-42.139918 2.106996-2.106996 2.106996-4.213992 2.106996-6.320988v-2.106996c0-2.106996-2.106996-4.213992-2.106996-4.213991h-2.106996c-2.106996-2.106996-4.213992-2.106996-6.320988-2.106996h-2.106996zM632.098765 328.691358c4.213992 0 6.320988-2.106996 8.427984-6.320988 0 0 14.748971-29.497942 16.855967-37.925926 2.106996-2.106996 2.106996-6.320988 0-8.427983 0-2.106996-2.106996-4.213992-6.320988-6.320988-2.106996-2.106996-6.320988-2.106996-8.427983 0-2.106996 2.106996-4.213992 2.106996-4.213992 6.320988 0 0-6.320988 14.748971-16.855967 35.81893-2.106996 4.213992-2.106996 10.534979 4.213992 14.748971 2.106996 2.106996 4.213992 2.106996 6.320987 2.106996" fill="#999999" p-id="2711"></path></svg>